<?xml version="1.0" standalone="no"?>
<!DOCTYPE svg PUBLIC "-//W3C//DTD SVG 20010904//EN"
 "http://www.w3.org/TR/2001/REC-SVG-20010904/DTD/svg10.dtd">
<svg version="1.0" xmlns="http://www.w3.org/2000/svg"
 width="315.000000pt" height="315.000000pt" viewBox="0 0 315.000000 315.000000"
 preserveAspectRatio="xMidYMid meet">
<metadata>
Created by potrace 1.14, written by Peter Selinger 2001-2017
</metadata>
<g transform="translate(0.000000,315.000000) scale(0.100000,-0.100000)"
fill="#000000" stroke="none">
<path d="M1428 3145 c-1 -1 -25 -5 -53 -9 -27 -3 -59 -8 -70 -10 -11 -2 -49
-10 -85 -16 -36 -7 -69 -16 -75 -20 -5 -4 -26 -11 -45 -16 -45 -10 -40 -9 -73
-22 -120 -50 -141 -60 -242 -116 -33 -19 -173 -115 -202 -138 -78 -65 -225
-225 -280 -303 -35 -50 -66 -94 -71 -100 -4 -5 -33 -62 -64 -125 -55 -111
-111 -263 -123 -332 -3 -18 -10 -52 -16 -76 -21 -97 -30 -373 -15 -479 4 -26
10 -64 12 -83 18 -123 91 -333 160 -459 36 -66 119 -196 139 -217 5 -7 26 -31
45 -55 126 -155 309 -301 495 -396 81 -40 254 -109 297 -117 13 -2 43 -10 68
-16 25 -6 61 -13 80 -15 19 -2 35 -4 35 -5 0 -7 108 -14 235 -14 154 0 254 8
298 25 12 5 26 8 30 8 4 -1 9 0 12 1 3 1 14 3 25 5 69 11 265 81 277 99 4 6 8
8 8 4 0 -16 235 119 278 159 7 7 16 13 20 13 13 1 171 148 227 211 47 53 136
169 130 169 -3 0 3 9 13 20 37 39 153 283 177 370 2 8 12 42 21 75 21 77 24
93 31 135 2 19 9 53 13 75 10 44 6 379 -4 435 -4 19 -9 46 -12 60 -8 42 -12
60 -29 125 -36 143 -154 392 -229 486 -12 14 -28 36 -36 49 -32 48 -133 156
-222 237 -43 39 -181 139 -228 164 -19 11 -42 24 -50 29 -33 21 -243 111 -270
116 -3 0 -25 6 -50 13 -25 7 -52 15 -60 16 -8 2 -15 4 -15 5 0 2 -18 6 -70 15
-22 3 -51 9 -65 11 -29 6 -366 14 -372 9z"/>
</g>
</svg>
